<svg width="11" height="13" viewBox="0 0 11 13" fill="none" xmlns="http://www.w3.org/2000/svg">
<path d="M10.0994 4.5H8.77841C8.70028 4.12003 8.56357 3.78622 8.36825 3.49858C8.17649 3.21094 7.94212 2.96946 7.66513 2.77415C7.39169 2.57528 7.08807 2.42614 6.75426 2.3267C6.42045 2.22727 6.07244 2.17756 5.71023 2.17756C5.04972 2.17756 4.45135 2.34446 3.91513 2.67827C3.38246 3.01207 2.9581 3.50391 2.64205 4.15376C2.32955 4.80362 2.1733 5.60085 2.1733 6.54545C2.1733 7.49006 2.32955 8.28729 2.64205 8.93714C2.9581 9.587 3.38246 10.0788 3.91513 10.4126C4.45135 10.7464 5.04972 10.9134 5.71023 10.9134C6.07244 10.9134 6.42045 10.8636 6.75426 10.7642C7.08807 10.6648 7.39169 10.5174 7.66513 10.3221C7.94212 10.1232 8.17649 9.87997 8.36825 9.59233C8.56357 9.30114 8.70028 8.96733 8.77841 8.59091H10.0994C10 9.14844 9.81889 9.64737 9.55611 10.0877C9.29332 10.5281 8.96662 10.9027 8.57599 11.2116C8.18537 11.517 7.7468 11.7496 7.2603 11.9094C6.77734 12.0692 6.26065 12.1491 5.71023 12.1491C4.77983 12.1491 3.95241 11.9219 3.22798 11.4673C2.50355 11.0128 1.93359 10.3665 1.51811 9.52841C1.10263 8.69034 0.894886 7.69602 0.894886 6.54545C0.894886 5.39489 1.10263 4.40057 1.51811 3.5625C1.93359 2.72443 2.50355 2.07812 3.22798 1.62358C3.95241 1.16903 4.77983 0.941761 5.71023 0.941761C6.26065 0.941761 6.77734 1.02166 7.2603 1.18146C7.7468 1.34126 8.18537 1.57564 8.57599 1.88459C8.96662 2.18999 9.29332 2.56285 9.55611 3.0032C9.81889 3.43999 10 3.93892 10.0994 4.5Z" fill="#316D60"/>
</svg>
