<svg width="9" height="11" viewBox="0 0 9 11" fill="none" xmlns="http://www.w3.org/2000/svg">
<path d="M0.321023 11V0.0909088H4.0071C4.85938 0.0909088 5.55895 0.236505 6.10582 0.527698C6.6527 0.81534 7.05753 1.21129 7.32031 1.71555C7.5831 2.21982 7.71449 2.79332 7.71449 3.43608C7.71449 4.07884 7.5831 4.64879 7.32031 5.14595C7.05753 5.64311 6.65447 6.03374 6.11115 6.31783C5.56783 6.59837 4.87358 6.73864 4.02841 6.73864H1.04545V5.54545H3.9858C4.56818 5.54545 5.03693 5.46023 5.39205 5.28977C5.75071 5.11932 6.00994 4.87784 6.16974 4.56534C6.3331 4.24929 6.41477 3.87287 6.41477 3.43608C6.41477 2.99929 6.3331 2.61754 6.16974 2.29084C6.00639 1.96413 5.74538 1.712 5.38672 1.53445C5.02805 1.35334 4.55398 1.26278 3.96449 1.26278H1.64205V11H0.321023ZM5.45597 6.09943L8.14062 11H6.60653L3.96449 6.09943H5.45597Z" fill="#316D60"/>
</svg>
